<mxfile host="app.diagrams.net" modified="2020-09-30T17:51:47.592Z" agent="5.0 (Windows NT 10.0; Win64; x64) AppleWebKit/537.36 (KHTML, like Gecko) Chrome/85.0.4183.121 Safari/537.36" etag="VvSHczJqqKq5Cp4Na2ZB" version="13.7.5" type="github">
  <diagram id="NkRrgXeP2KO7NF5XD1Lj" name="Page-1">
    <mxGraphModel dx="2076" dy="1062" grid="1" gridSize="10" guides="1" tooltips="1" connect="1" arrows="1" fold="1" page="1" pageScale="1" pageWidth="850" pageHeight="1100" math="0" shadow="0">
      <root>
        <mxCell id="0" />
        <mxCell id="1" parent="0" />
        <mxCell id="5nXByuvVlIJgpsHg32p2-1" value="" style="html=1;shadow=0;dashed=0;align=center;verticalAlign=middle;shape=mxgraph.arrows2.arrow;dy=0.6;dx=40;notch=0;" vertex="1" parent="1">
          <mxGeometry x="30" y="260" width="820" height="70" as="geometry" />
        </mxCell>
        <mxCell id="5nXByuvVlIJgpsHg32p2-3" value="" style="endArrow=none;html=1;" edge="1" parent="1">
          <mxGeometry width="50" height="50" relative="1" as="geometry">
            <mxPoint x="160" y="320" as="sourcePoint" />
            <mxPoint x="159.76" y="270" as="targetPoint" />
          </mxGeometry>
        </mxCell>
        <mxCell id="5nXByuvVlIJgpsHg32p2-4" value="date1&lt;br&gt;(jour1,mois1,annee1)" style="text;html=1;strokeColor=none;fillColor=none;align=center;verticalAlign=middle;whiteSpace=wrap;rounded=0;" vertex="1" parent="1">
          <mxGeometry x="140" y="220" width="40" height="20" as="geometry" />
        </mxCell>
        <mxCell id="5nXByuvVlIJgpsHg32p2-5" value="" style="endArrow=none;html=1;" edge="1" parent="1">
          <mxGeometry width="50" height="50" relative="1" as="geometry">
            <mxPoint x="680" y="320" as="sourcePoint" />
            <mxPoint x="680" y="260" as="targetPoint" />
          </mxGeometry>
        </mxCell>
        <mxCell id="5nXByuvVlIJgpsHg32p2-6" value="date2&lt;br&gt;(jour2,mois2,annee2)" style="text;html=1;strokeColor=none;fillColor=none;align=center;verticalAlign=middle;whiteSpace=wrap;rounded=0;" vertex="1" parent="1">
          <mxGeometry x="660" y="220" width="40" height="20" as="geometry" />
        </mxCell>
        <mxCell id="5nXByuvVlIJgpsHg32p2-7" value="" style="endArrow=none;html=1;" edge="1" parent="1">
          <mxGeometry width="50" height="50" relative="1" as="geometry">
            <mxPoint x="270" y="320" as="sourcePoint" />
            <mxPoint x="270" y="200" as="targetPoint" />
          </mxGeometry>
        </mxCell>
        <mxCell id="5nXByuvVlIJgpsHg32p2-8" value="31 décembre annee1" style="text;html=1;strokeColor=none;fillColor=none;align=center;verticalAlign=middle;whiteSpace=wrap;rounded=0;" vertex="1" parent="1">
          <mxGeometry x="250" y="160" width="40" height="20" as="geometry" />
        </mxCell>
        <mxCell id="5nXByuvVlIJgpsHg32p2-9" value="" style="endArrow=none;html=1;" edge="1" parent="1">
          <mxGeometry width="50" height="50" relative="1" as="geometry">
            <mxPoint x="600" y="320" as="sourcePoint" />
            <mxPoint x="600" y="201" as="targetPoint" />
          </mxGeometry>
        </mxCell>
        <mxCell id="5nXByuvVlIJgpsHg32p2-10" value="1 janvier annee2" style="text;html=1;strokeColor=none;fillColor=none;align=center;verticalAlign=middle;whiteSpace=wrap;rounded=0;" vertex="1" parent="1">
          <mxGeometry x="580" y="161" width="40" height="20" as="geometry" />
        </mxCell>
        <mxCell id="5nXByuvVlIJgpsHg32p2-11" value="" style="strokeWidth=2;html=1;shape=mxgraph.flowchart.annotation_2;align=left;labelPosition=right;pointerEvents=1;rotation=-90;" vertex="1" parent="1">
          <mxGeometry x="195" y="305" width="40" height="110" as="geometry" />
        </mxCell>
        <mxCell id="5nXByuvVlIJgpsHg32p2-12" value="" style="strokeWidth=2;html=1;shape=mxgraph.flowchart.annotation_2;align=left;labelPosition=right;pointerEvents=1;rotation=-90;" vertex="1" parent="1">
          <mxGeometry x="417.5" y="197.5" width="40" height="325" as="geometry" />
        </mxCell>
        <mxCell id="5nXByuvVlIJgpsHg32p2-13" value="" style="strokeWidth=2;html=1;shape=mxgraph.flowchart.annotation_2;align=left;labelPosition=right;pointerEvents=1;rotation=-90;" vertex="1" parent="1">
          <mxGeometry x="622.5" y="322.5" width="40" height="75" as="geometry" />
        </mxCell>
        <mxCell id="5nXByuvVlIJgpsHg32p2-14" value="Étape 2" style="text;html=1;strokeColor=none;fillColor=none;align=center;verticalAlign=middle;whiteSpace=wrap;rounded=0;" vertex="1" parent="1">
          <mxGeometry x="192.5" y="390" width="45" height="20" as="geometry" />
        </mxCell>
        <mxCell id="5nXByuvVlIJgpsHg32p2-15" value="Étape 3" style="text;html=1;strokeColor=none;fillColor=none;align=center;verticalAlign=middle;whiteSpace=wrap;rounded=0;" vertex="1" parent="1">
          <mxGeometry x="415" y="390" width="45" height="20" as="geometry" />
        </mxCell>
        <mxCell id="5nXByuvVlIJgpsHg32p2-16" value="Étape 4" style="text;html=1;strokeColor=none;fillColor=none;align=center;verticalAlign=middle;whiteSpace=wrap;rounded=0;" vertex="1" parent="1">
          <mxGeometry x="620" y="390" width="45" height="20" as="geometry" />
        </mxCell>
      </root>
    </mxGraphModel>
  </diagram>
</mxfile>
